<svg width="31" height="31" viewBox="0 0 31 31" fill="none" xmlns="http://www.w3.org/2000/svg">
<path d="M14.4595 23.2085H16.772V16.8106H23.2085V14.4981H16.772V7.79183H14.4595V14.4981H7.79183V16.8106H14.4595V23.2085ZM15.5104 30.9168C13.3846 30.9168 11.3869 30.5121 9.51719 29.7028C7.6475 28.8934 6.01249 27.7885 4.61214 26.3882C3.21179 24.9878 2.10693 23.3519 1.29756 21.4802C0.488184 19.6087 0.0834961 17.6089 0.0834961 15.4809C0.0834961 13.3529 0.488184 11.3531 1.29756 9.48153C2.10693 7.60993 3.21179 5.98037 4.61214 4.59287C6.01249 3.20537 7.64847 2.10693 9.52008 1.29756C11.3917 0.488184 13.3914 0.0834961 15.5194 0.0834961C17.6474 0.0834961 19.6472 0.488184 21.5188 1.29756C23.3904 2.10693 25.02 3.20537 26.4075 4.59287C27.795 5.98037 28.8934 7.61197 29.7028 9.48766C30.5121 11.3634 30.9168 13.3641 30.9168 15.4899C30.9168 17.6157 30.5121 19.6135 29.7028 21.4831C28.8934 23.3528 27.795 24.9855 26.4075 26.3811C25.02 27.7767 23.3884 28.8816 21.5127 29.6957C19.637 30.5098 17.6362 30.9168 15.5104 30.9168ZM15.5194 28.6043C19.1552 28.6043 22.245 27.326 24.7887 24.7694C27.3325 22.2128 28.6043 19.1167 28.6043 15.4809C28.6043 11.8451 27.3349 8.75537 24.7959 6.21162C22.257 3.66787 19.1584 2.396 15.5002 2.396C11.8772 2.396 8.78749 3.66546 6.23089 6.20438C3.67429 8.74332 2.396 11.8419 2.396 15.5002C2.396 19.1231 3.67429 22.2128 6.23089 24.7694C8.78749 27.326 11.8837 28.6043 15.5194 28.6043Z" fill="white"/>
</svg>
