<svg width="69" height="30" viewBox="0 0 69 30" fill="none" xmlns="http://www.w3.org/2000/svg">
<path d="M3.82934 30C2.15464 30 0.878196 29.6967 0 29.09L1.28666 25.6623C1.83809 26.0465 2.51205 26.2386 3.30855 26.2386C3.92125 26.2386 4.40119 26.0364 4.74839 25.632C5.09558 25.2477 5.26918 24.6613 5.26918 23.8726V7.55308H10.0482V23.8423C10.0482 25.7432 9.49677 27.2396 8.39392 28.3316C7.31149 29.4439 5.78997 30 3.82934 30ZM7.65869 5.27806C6.78049 5.27806 6.06568 5.02528 5.51426 4.51972C4.96283 4.01416 4.68712 3.38726 4.68712 2.63903C4.68712 1.8908 4.96283 1.2639 5.51426 0.758343C6.06568 0.252781 6.78049 0 7.65869 0C8.53688 0 9.2517 0.24267 9.80312 0.72801C10.3545 1.21335 10.6303 1.82002 10.6303 2.54803C10.6303 3.3367 10.3545 3.99393 9.80312 4.51972C9.2517 5.02528 8.53688 5.27806 7.65869 5.27806Z" fill="#8490FF"/>
<path d="M22.2911 24.1153C20.5551 24.1153 18.9928 23.7614 17.604 23.0536C16.2356 22.3256 15.1634 21.3246 14.3873 20.0506C13.6112 18.7765 13.2232 17.3306 13.2232 15.7128C13.2232 14.095 13.6112 12.6491 14.3873 11.3751C15.1634 10.1011 16.2356 9.11021 17.604 8.40243C18.9928 7.67442 20.5551 7.31042 22.2911 7.31042C24.0271 7.31042 25.5792 7.67442 26.9476 8.40243C28.3159 9.11021 29.3881 10.1011 30.1642 11.3751C30.9403 12.6491 31.3283 14.095 31.3283 15.7128C31.3283 17.3306 30.9403 18.7765 30.1642 20.0506C29.3881 21.3246 28.3159 22.3256 26.9476 23.0536C25.5792 23.7614 24.0271 24.1153 22.2911 24.1153ZM22.2911 20.2326C23.5165 20.2326 24.5172 19.8281 25.2933 19.0192C26.0898 18.1901 26.4881 17.088 26.4881 15.7128C26.4881 14.3377 26.0898 13.2457 25.2933 12.4368C24.5172 11.6077 23.5165 11.1931 22.2911 11.1931C21.0657 11.1931 20.0548 11.6077 19.2583 12.4368C18.4617 13.2457 18.0635 14.3377 18.0635 15.7128C18.0635 17.088 18.4617 18.1901 19.2583 19.0192C20.0548 19.8281 21.0657 20.2326 22.2911 20.2326Z" fill="#8490FF"/>
<path d="M44.2646 7.31042C45.7963 7.31042 47.1851 7.66431 48.4309 8.37209C49.6972 9.05966 50.6877 10.0404 51.4025 11.3145C52.1173 12.5683 52.4747 14.0344 52.4747 15.7128C52.4747 17.3913 52.1173 18.8675 51.4025 20.1416C50.6877 21.3953 49.6972 22.3761 48.4309 23.0839C47.1851 23.7715 45.7963 24.1153 44.2646 24.1153C41.9976 24.1153 40.2719 23.4075 39.0873 21.9919V23.8726H34.5227V1.36502H39.3018V9.2821C40.5067 7.96765 42.161 7.31042 44.2646 7.31042ZM43.4374 20.2326C44.6628 20.2326 45.6636 19.8281 46.4397 19.0192C47.2362 18.1901 47.6344 17.088 47.6344 15.7128C47.6344 14.3377 47.2362 13.2457 46.4397 12.4368C45.6636 11.6077 44.6628 11.1931 43.4374 11.1931C42.2121 11.1931 41.2011 11.6077 40.4046 12.4368C39.6285 13.2457 39.2405 14.3377 39.2405 15.7128C39.2405 17.088 39.6285 18.1901 40.4046 19.0192C41.2011 19.8281 42.2121 20.2326 43.4374 20.2326Z" fill="#8490FF"/>
<path d="M61.2188 24.1153C59.8504 24.1153 58.5127 23.9535 57.2056 23.6299C55.8985 23.2861 54.857 22.8615 54.0809 22.3559L55.6739 18.9585C56.4091 19.4237 57.2975 19.8079 58.3391 20.1112C59.3807 20.3943 60.4018 20.5359 61.4026 20.5359C63.4245 20.5359 64.4354 20.0404 64.4354 19.0495C64.4354 18.5844 64.1597 18.2508 63.6083 18.0485C63.0569 17.8463 62.2093 17.6744 61.0656 17.5329C59.7177 17.3306 58.6046 17.0981 57.7264 16.8352C56.8482 16.5723 56.0823 16.1072 55.4288 15.4398C54.7957 14.7725 54.4791 13.822 54.4791 12.5885C54.4791 11.5571 54.7753 10.6471 55.3675 9.85844C55.9802 9.04955 56.8584 8.42265 58.0021 7.97776C59.1662 7.53286 60.5346 7.31042 62.1072 7.31042C63.2713 7.31042 64.4252 7.44186 65.5689 7.70475C66.733 7.94742 67.6929 8.2912 68.4486 8.7361L66.8556 12.1031C65.4055 11.2942 63.8227 10.8898 62.1072 10.8898C61.086 10.8898 60.3202 11.0313 59.8096 11.3145C59.299 11.5976 59.0437 11.9616 59.0437 12.4065C59.0437 12.912 59.3194 13.2659 59.8708 13.4681C60.4223 13.6704 61.3005 13.8625 62.5054 14.0445C63.8534 14.2669 64.9562 14.5096 65.814 14.7725C66.6718 15.0152 67.4172 15.4702 68.0503 16.1375C68.6834 16.8049 69 17.7351 69 18.9282C69 19.9393 68.6936 20.8392 68.081 21.6279C67.4683 22.4166 66.5696 23.0334 65.3851 23.4783C64.221 23.9029 62.8322 24.1153 61.2188 24.1153Z" fill="#8490FF"/>
</svg>
