<svg width="90" height="18" viewBox="0 0 90 18" fill="none" xmlns="http://www.w3.org/2000/svg">
<path d="M7.106 14.204C6.188 14.204 5.33233 14.0567 4.539 13.762C3.757 13.456 3.077 13.0253 2.499 12.47C1.921 11.9147 1.46767 11.263 1.139 10.515C0.821667 9.767 0.663 8.94533 0.663 8.05C0.663 7.15467 0.821667 6.333 1.139 5.585C1.46767 4.837 1.921 4.18533 2.499 3.63C3.08833 3.07467 3.774 2.64967 4.556 2.355C5.338 2.049 6.19367 1.896 7.123 1.896C8.15433 1.896 9.08367 2.07733 9.911 2.44C10.7497 2.79133 11.4523 3.31267 12.019 4.004L10.251 5.636C9.843 5.17133 9.38967 4.82567 8.891 4.599C8.39233 4.361 7.84833 4.242 7.259 4.242C6.70367 4.242 6.19367 4.33267 5.729 4.514C5.26433 4.69533 4.862 4.956 4.522 5.296C4.182 5.636 3.91567 6.03833 3.723 6.503C3.54167 6.96767 3.451 7.48333 3.451 8.05C3.451 8.61667 3.54167 9.13233 3.723 9.597C3.91567 10.0617 4.182 10.464 4.522 10.804C4.862 11.144 5.26433 11.4047 5.729 11.586C6.19367 11.7673 6.70367 11.858 7.259 11.858C7.84833 11.858 8.39233 11.7447 8.891 11.518C9.38967 11.28 9.843 10.923 10.251 10.447L12.019 12.079C11.4523 12.7703 10.7497 13.2973 9.911 13.66C9.08367 14.0227 8.14867 14.204 7.106 14.204ZM13.6918 14V4.854H16.2248V7.438L15.8678 6.69C16.1398 6.044 16.5761 5.55667 17.1768 5.228C17.7774 4.888 18.5084 4.718 19.3698 4.718V7.166C19.2564 7.15467 19.1544 7.149 19.0638 7.149C18.9731 7.13767 18.8768 7.132 18.7748 7.132C18.0494 7.132 17.4601 7.34167 17.0068 7.761C16.5648 8.169 16.3438 8.80933 16.3438 9.682V14H13.6918ZM20.9633 14V4.854H23.6153V14H20.9633ZM22.2893 3.579C21.8019 3.579 21.4053 3.43733 21.0993 3.154C20.7933 2.87067 20.6403 2.51933 20.6403 2.1C20.6403 1.68067 20.7933 1.32933 21.0993 1.046C21.4053 0.762666 21.8019 0.620999 22.2893 0.620999C22.7766 0.620999 23.1733 0.756999 23.4793 1.029C23.7853 1.28967 23.9383 1.62967 23.9383 2.049C23.9383 2.491 23.7853 2.85933 23.4793 3.154C23.1846 3.43733 22.7879 3.579 22.2893 3.579ZM31.6865 14V12.215L31.5165 11.824V8.628C31.5165 8.06133 31.3409 7.61933 30.9895 7.302C30.6495 6.98467 30.1225 6.826 29.4085 6.826C28.9212 6.826 28.4395 6.90533 27.9635 7.064C27.4989 7.21133 27.1022 7.41533 26.7735 7.676L25.8215 5.823C26.3202 5.47167 26.9209 5.19967 27.6235 5.007C28.3262 4.81433 29.0402 4.718 29.7655 4.718C31.1595 4.718 32.2419 5.04667 33.0125 5.704C33.7832 6.36133 34.1685 7.387 34.1685 8.781V14H31.6865ZM28.8985 14.136C28.1845 14.136 27.5725 14.017 27.0625 13.779C26.5525 13.5297 26.1615 13.1953 25.8895 12.776C25.6175 12.3567 25.4815 11.8863 25.4815 11.365C25.4815 10.821 25.6119 10.345 25.8725 9.937C26.1445 9.529 26.5695 9.21167 27.1475 8.985C27.7255 8.747 28.4792 8.628 29.4085 8.628H31.8395V10.175H29.6975C29.0742 10.175 28.6435 10.277 28.4055 10.481C28.1789 10.685 28.0655 10.94 28.0655 11.246C28.0655 11.586 28.1959 11.858 28.4565 12.062C28.7285 12.2547 29.0969 12.351 29.5615 12.351C30.0035 12.351 30.4002 12.249 30.7515 12.045C31.1029 11.8297 31.3579 11.518 31.5165 11.11L31.9245 12.334C31.7319 12.9233 31.3805 13.371 30.8705 13.677C30.3605 13.983 29.7032 14.136 28.8985 14.136ZM36.5687 14V4.854H39.1017V7.438L38.7447 6.69C39.0167 6.044 39.4531 5.55667 40.0537 5.228C40.6544 4.888 41.3854 4.718 42.2467 4.718V7.166C42.1334 7.15467 42.0314 7.149 41.9407 7.149C41.8501 7.13767 41.7537 7.132 41.6517 7.132C40.9264 7.132 40.3371 7.34167 39.8837 7.761C39.4417 8.169 39.2207 8.80933 39.2207 9.682V14H36.5687ZM51.1865 14L47.3445 4.854H50.0815L53.2775 12.725H51.9175L55.2325 4.854H57.7825L53.9235 14H51.1865ZM64.1758 14V12.215L64.0058 11.824V8.628C64.0058 8.06133 63.8301 7.61933 63.4788 7.302C63.1388 6.98467 62.6118 6.826 61.8978 6.826C61.4105 6.826 60.9288 6.90533 60.4528 7.064C59.9881 7.21133 59.5915 7.41533 59.2628 7.676L58.3108 5.823C58.8095 5.47167 59.4101 5.19967 60.1128 5.007C60.8155 4.81433 61.5295 4.718 62.2548 4.718C63.6488 4.718 64.7311 5.04667 65.5018 5.704C66.2725 6.36133 66.6578 7.387 66.6578 8.781V14H64.1758ZM61.3878 14.136C60.6738 14.136 60.0618 14.017 59.5518 13.779C59.0418 13.5297 58.6508 13.1953 58.3788 12.776C58.1068 12.3567 57.9708 11.8863 57.9708 11.365C57.9708 10.821 58.1011 10.345 58.3618 9.937C58.6338 9.529 59.0588 9.21167 59.6368 8.985C60.2148 8.747 60.9685 8.628 61.8978 8.628H64.3288V10.175H62.1868C61.5635 10.175 61.1328 10.277 60.8948 10.481C60.6681 10.685 60.5548 10.94 60.5548 11.246C60.5548 11.586 60.6851 11.858 60.9458 12.062C61.2178 12.2547 61.5861 12.351 62.0508 12.351C62.4928 12.351 62.8895 12.249 63.2408 12.045C63.5921 11.8297 63.8471 11.518 64.0058 11.11L64.4138 12.334C64.2211 12.9233 63.8698 13.371 63.3598 13.677C62.8498 13.983 62.1925 14.136 61.3878 14.136ZM73.4254 17.434C72.5641 17.434 71.7311 17.3263 70.9264 17.111C70.1331 16.907 69.4701 16.5953 68.9374 16.176L69.9914 14.272C70.3767 14.5893 70.8641 14.8387 71.4534 15.02C72.0541 15.2127 72.6434 15.309 73.2214 15.309C74.1621 15.309 74.8421 15.0993 75.2614 14.68C75.6921 14.2607 75.9074 13.6373 75.9074 12.81V11.433L76.0774 9.138L76.0434 6.826V4.854H78.5594V12.47C78.5594 14.17 78.1174 15.4223 77.2334 16.227C76.3494 17.0317 75.0801 17.434 73.4254 17.434ZM73.0174 13.558C72.1674 13.558 71.3967 13.3767 70.7054 13.014C70.0254 12.64 69.4757 12.1243 69.0564 11.467C68.6484 10.7983 68.4444 10.022 68.4444 9.138C68.4444 8.24267 68.6484 7.46633 69.0564 6.809C69.4757 6.14033 70.0254 5.62467 70.7054 5.262C71.3967 4.89933 72.1674 4.718 73.0174 4.718C73.7881 4.718 74.4681 4.87667 75.0574 5.194C75.6467 5.5 76.1057 5.98167 76.4344 6.639C76.7631 7.285 76.9274 8.118 76.9274 9.138C76.9274 10.1467 76.7631 10.9797 76.4344 11.637C76.1057 12.283 75.6467 12.7647 75.0574 13.082C74.4681 13.3993 73.7881 13.558 73.0174 13.558ZM73.5444 11.382C74.0091 11.382 74.4227 11.2913 74.7854 11.11C75.1481 10.9173 75.4314 10.651 75.6354 10.311C75.8394 9.971 75.9414 9.58 75.9414 9.138C75.9414 8.68467 75.8394 8.29367 75.6354 7.965C75.4314 7.625 75.1481 7.36433 74.7854 7.183C74.4227 6.99033 74.0091 6.894 73.5444 6.894C73.0797 6.894 72.6661 6.99033 72.3034 7.183C71.9407 7.36433 71.6517 7.625 71.4364 7.965C71.2324 8.29367 71.1304 8.68467 71.1304 9.138C71.1304 9.58 71.2324 9.971 71.4364 10.311C71.6517 10.651 71.9407 10.9173 72.3034 11.11C72.6661 11.2913 73.0797 11.382 73.5444 11.382ZM86.6377 14V12.215L86.4677 11.824V8.628C86.4677 8.06133 86.292 7.61933 85.9407 7.302C85.6007 6.98467 85.0737 6.826 84.3597 6.826C83.8724 6.826 83.3907 6.90533 82.9147 7.064C82.45 7.21133 82.0534 7.41533 81.7247 7.676L80.7727 5.823C81.2714 5.47167 81.872 5.19967 82.5747 5.007C83.2774 4.81433 83.9914 4.718 84.7167 4.718C86.1107 4.718 87.193 5.04667 87.9637 5.704C88.7344 6.36133 89.1197 7.387 89.1197 8.781V14H86.6377ZM83.8497 14.136C83.1357 14.136 82.5237 14.017 82.0137 13.779C81.5037 13.5297 81.1127 13.1953 80.8407 12.776C80.5687 12.3567 80.4327 11.8863 80.4327 11.365C80.4327 10.821 80.563 10.345 80.8237 9.937C81.0957 9.529 81.5207 9.21167 82.0987 8.985C82.6767 8.747 83.4304 8.628 84.3597 8.628H86.7907V10.175H84.6487C84.0254 10.175 83.5947 10.277 83.3567 10.481C83.13 10.685 83.0167 10.94 83.0167 11.246C83.0167 11.586 83.147 11.858 83.4077 12.062C83.6797 12.2547 84.048 12.351 84.5127 12.351C84.9547 12.351 85.3514 12.249 85.7027 12.045C86.054 11.8297 86.309 11.518 86.4677 11.11L86.8757 12.334C86.683 12.9233 86.3317 13.371 85.8217 13.677C85.3117 13.983 84.6544 14.136 83.8497 14.136Z" fill="white"/>
</svg>
